<mxfile host="app.diagrams.net" agent="Mozilla/5.0 (Windows NT 10.0; Win64; x64) AppleWebKit/537.36 (KHTML, like Gecko) Chrome/127.0.0.0 Safari/537.36" version="24.7.7">
  <diagram name="Page-1" id="IJgvS700TnrIUpAiDzji">
    <mxGraphModel dx="1235" dy="661" grid="1" gridSize="10" guides="1" tooltips="1" connect="1" arrows="1" fold="1" page="1" pageScale="1" pageWidth="850" pageHeight="1100" math="0" shadow="0">
      <root>
        <mxCell id="0" />
        <mxCell id="1" parent="0" />
        <mxCell id="2qbXoi_8YB-D-ueGqOY0-1" value="name" style="ellipse;whiteSpace=wrap;html=1;" vertex="1" parent="1">
          <mxGeometry x="110" y="80" width="120" height="80" as="geometry" />
        </mxCell>
        <mxCell id="2qbXoi_8YB-D-ueGqOY0-4" value="email" style="ellipse;whiteSpace=wrap;html=1;" vertex="1" parent="1">
          <mxGeometry x="250" y="20" width="120" height="80" as="geometry" />
        </mxCell>
        <mxCell id="2qbXoi_8YB-D-ueGqOY0-5" value="password" style="ellipse;whiteSpace=wrap;html=1;" vertex="1" parent="1">
          <mxGeometry x="240" y="430" width="120" height="80" as="geometry" />
        </mxCell>
        <mxCell id="2qbXoi_8YB-D-ueGqOY0-6" value="enabled" style="ellipse;whiteSpace=wrap;html=1;" vertex="1" parent="1">
          <mxGeometry x="400" y="60" width="120" height="80" as="geometry" />
        </mxCell>
        <mxCell id="2qbXoi_8YB-D-ueGqOY0-7" value="role" style="ellipse;whiteSpace=wrap;html=1;" vertex="1" parent="1">
          <mxGeometry x="70" y="190" width="120" height="80" as="geometry" />
        </mxCell>
        <mxCell id="2qbXoi_8YB-D-ueGqOY0-8" value="&lt;u&gt;id&lt;/u&gt;" style="ellipse;whiteSpace=wrap;html=1;" vertex="1" parent="1">
          <mxGeometry x="40" y="290" width="120" height="80" as="geometry" />
        </mxCell>
        <mxCell id="2qbXoi_8YB-D-ueGqOY0-9" value="about" style="ellipse;whiteSpace=wrap;html=1;" vertex="1" parent="1">
          <mxGeometry x="410" y="430" width="120" height="80" as="geometry" />
        </mxCell>
        <mxCell id="2qbXoi_8YB-D-ueGqOY0-10" value="image" style="ellipse;whiteSpace=wrap;html=1;" vertex="1" parent="1">
          <mxGeometry x="50" y="430" width="120" height="80" as="geometry" />
        </mxCell>
        <mxCell id="2qbXoi_8YB-D-ueGqOY0-42" style="edgeStyle=orthogonalEdgeStyle;rounded=0;orthogonalLoop=1;jettySize=auto;html=1;exitX=1;exitY=0;exitDx=0;exitDy=0;entryX=0.5;entryY=1;entryDx=0;entryDy=0;" edge="1" parent="1" source="2qbXoi_8YB-D-ueGqOY0-11" target="2qbXoi_8YB-D-ueGqOY0-6">
          <mxGeometry relative="1" as="geometry" />
        </mxCell>
        <mxCell id="2qbXoi_8YB-D-ueGqOY0-43" style="edgeStyle=orthogonalEdgeStyle;rounded=0;orthogonalLoop=1;jettySize=auto;html=1;exitX=0.5;exitY=0;exitDx=0;exitDy=0;entryX=0.5;entryY=1;entryDx=0;entryDy=0;" edge="1" parent="1" source="2qbXoi_8YB-D-ueGqOY0-11" target="2qbXoi_8YB-D-ueGqOY0-4">
          <mxGeometry relative="1" as="geometry" />
        </mxCell>
        <mxCell id="2qbXoi_8YB-D-ueGqOY0-45" style="edgeStyle=orthogonalEdgeStyle;rounded=0;orthogonalLoop=1;jettySize=auto;html=1;exitX=0;exitY=0.5;exitDx=0;exitDy=0;entryX=1;entryY=0.5;entryDx=0;entryDy=0;" edge="1" parent="1" source="2qbXoi_8YB-D-ueGqOY0-11" target="2qbXoi_8YB-D-ueGqOY0-7">
          <mxGeometry relative="1" as="geometry" />
        </mxCell>
        <mxCell id="2qbXoi_8YB-D-ueGqOY0-46" style="edgeStyle=orthogonalEdgeStyle;rounded=0;orthogonalLoop=1;jettySize=auto;html=1;exitX=0;exitY=1;exitDx=0;exitDy=0;entryX=1;entryY=0.5;entryDx=0;entryDy=0;" edge="1" parent="1" source="2qbXoi_8YB-D-ueGqOY0-11" target="2qbXoi_8YB-D-ueGqOY0-8">
          <mxGeometry relative="1" as="geometry" />
        </mxCell>
        <mxCell id="2qbXoi_8YB-D-ueGqOY0-48" style="edgeStyle=orthogonalEdgeStyle;rounded=0;orthogonalLoop=1;jettySize=auto;html=1;exitX=0.25;exitY=1;exitDx=0;exitDy=0;entryX=1;entryY=0;entryDx=0;entryDy=0;" edge="1" parent="1" source="2qbXoi_8YB-D-ueGqOY0-11" target="2qbXoi_8YB-D-ueGqOY0-10">
          <mxGeometry relative="1" as="geometry" />
        </mxCell>
        <mxCell id="2qbXoi_8YB-D-ueGqOY0-51" style="edgeStyle=orthogonalEdgeStyle;rounded=0;orthogonalLoop=1;jettySize=auto;html=1;exitX=0.75;exitY=1;exitDx=0;exitDy=0;" edge="1" parent="1" source="2qbXoi_8YB-D-ueGqOY0-11" target="2qbXoi_8YB-D-ueGqOY0-9">
          <mxGeometry relative="1" as="geometry" />
        </mxCell>
        <mxCell id="2qbXoi_8YB-D-ueGqOY0-11" value="User" style="rounded=0;whiteSpace=wrap;html=1;" vertex="1" parent="1">
          <mxGeometry x="270" y="240" width="120" height="60" as="geometry" />
        </mxCell>
        <mxCell id="2qbXoi_8YB-D-ueGqOY0-22" value="" style="edgeStyle=orthogonalEdgeStyle;rounded=0;orthogonalLoop=1;jettySize=auto;html=1;" edge="1" parent="1" source="2qbXoi_8YB-D-ueGqOY0-20" target="2qbXoi_8YB-D-ueGqOY0-21">
          <mxGeometry relative="1" as="geometry" />
        </mxCell>
        <mxCell id="2qbXoi_8YB-D-ueGqOY0-20" value="Has" style="rhombus;whiteSpace=wrap;html=1;" vertex="1" parent="1">
          <mxGeometry x="570" y="230" width="80" height="80" as="geometry" />
        </mxCell>
        <mxCell id="2qbXoi_8YB-D-ueGqOY0-34" style="edgeStyle=orthogonalEdgeStyle;rounded=0;orthogonalLoop=1;jettySize=auto;html=1;exitX=0.5;exitY=0;exitDx=0;exitDy=0;" edge="1" parent="1" source="2qbXoi_8YB-D-ueGqOY0-21">
          <mxGeometry relative="1" as="geometry">
            <mxPoint x="810" y="170" as="targetPoint" />
          </mxGeometry>
        </mxCell>
        <mxCell id="2qbXoi_8YB-D-ueGqOY0-35" style="edgeStyle=orthogonalEdgeStyle;rounded=0;orthogonalLoop=1;jettySize=auto;html=1;exitX=0.75;exitY=0;exitDx=0;exitDy=0;entryX=0.5;entryY=1;entryDx=0;entryDy=0;" edge="1" parent="1" source="2qbXoi_8YB-D-ueGqOY0-21" target="2qbXoi_8YB-D-ueGqOY0-27">
          <mxGeometry relative="1" as="geometry" />
        </mxCell>
        <mxCell id="2qbXoi_8YB-D-ueGqOY0-37" style="edgeStyle=orthogonalEdgeStyle;rounded=0;orthogonalLoop=1;jettySize=auto;html=1;exitX=1;exitY=0.25;exitDx=0;exitDy=0;entryX=0;entryY=1;entryDx=0;entryDy=0;" edge="1" parent="1" source="2qbXoi_8YB-D-ueGqOY0-21" target="2qbXoi_8YB-D-ueGqOY0-32">
          <mxGeometry relative="1" as="geometry" />
        </mxCell>
        <mxCell id="2qbXoi_8YB-D-ueGqOY0-38" style="edgeStyle=orthogonalEdgeStyle;rounded=0;orthogonalLoop=1;jettySize=auto;html=1;exitX=1;exitY=0.75;exitDx=0;exitDy=0;" edge="1" parent="1" source="2qbXoi_8YB-D-ueGqOY0-21" target="2qbXoi_8YB-D-ueGqOY0-31">
          <mxGeometry relative="1" as="geometry" />
        </mxCell>
        <mxCell id="2qbXoi_8YB-D-ueGqOY0-39" style="edgeStyle=orthogonalEdgeStyle;rounded=0;orthogonalLoop=1;jettySize=auto;html=1;exitX=1;exitY=1;exitDx=0;exitDy=0;" edge="1" parent="1" source="2qbXoi_8YB-D-ueGqOY0-21" target="2qbXoi_8YB-D-ueGqOY0-33">
          <mxGeometry relative="1" as="geometry" />
        </mxCell>
        <mxCell id="2qbXoi_8YB-D-ueGqOY0-41" style="edgeStyle=orthogonalEdgeStyle;rounded=0;orthogonalLoop=1;jettySize=auto;html=1;exitX=0;exitY=1;exitDx=0;exitDy=0;entryX=0.5;entryY=0;entryDx=0;entryDy=0;" edge="1" parent="1" source="2qbXoi_8YB-D-ueGqOY0-21" target="2qbXoi_8YB-D-ueGqOY0-29">
          <mxGeometry relative="1" as="geometry" />
        </mxCell>
        <mxCell id="2qbXoi_8YB-D-ueGqOY0-21" value="Contact" style="whiteSpace=wrap;html=1;" vertex="1" parent="1">
          <mxGeometry x="780" y="290" width="120" height="60" as="geometry" />
        </mxCell>
        <mxCell id="2qbXoi_8YB-D-ueGqOY0-23" value="" style="endArrow=classic;html=1;rounded=0;entryX=1;entryY=0.5;entryDx=0;entryDy=0;exitX=0;exitY=0.5;exitDx=0;exitDy=0;" edge="1" parent="1" source="2qbXoi_8YB-D-ueGqOY0-20" target="2qbXoi_8YB-D-ueGqOY0-11">
          <mxGeometry width="50" height="50" relative="1" as="geometry">
            <mxPoint x="400" y="320" as="sourcePoint" />
            <mxPoint x="450" y="270" as="targetPoint" />
          </mxGeometry>
        </mxCell>
        <mxCell id="2qbXoi_8YB-D-ueGqOY0-24" value="1" style="text;html=1;align=center;verticalAlign=middle;resizable=0;points=[];autosize=1;strokeColor=none;fillColor=none;" vertex="1" parent="1">
          <mxGeometry x="465" y="238" width="30" height="30" as="geometry" />
        </mxCell>
        <mxCell id="2qbXoi_8YB-D-ueGqOY0-25" value="m" style="text;html=1;align=center;verticalAlign=middle;resizable=0;points=[];autosize=1;strokeColor=none;fillColor=none;" vertex="1" parent="1">
          <mxGeometry x="685" y="238" width="30" height="30" as="geometry" />
        </mxCell>
        <mxCell id="2qbXoi_8YB-D-ueGqOY0-26" value="name" style="ellipse;whiteSpace=wrap;html=1;" vertex="1" parent="1">
          <mxGeometry x="740" y="80" width="120" height="80" as="geometry" />
        </mxCell>
        <mxCell id="2qbXoi_8YB-D-ueGqOY0-27" value="email" style="ellipse;whiteSpace=wrap;html=1;" vertex="1" parent="1">
          <mxGeometry x="880" y="20" width="120" height="80" as="geometry" />
        </mxCell>
        <mxCell id="2qbXoi_8YB-D-ueGqOY0-28" value="image" style="ellipse;whiteSpace=wrap;html=1;" vertex="1" parent="1">
          <mxGeometry x="1030" y="60" width="120" height="80" as="geometry" />
        </mxCell>
        <mxCell id="2qbXoi_8YB-D-ueGqOY0-29" value="description" style="ellipse;whiteSpace=wrap;html=1;" vertex="1" parent="1">
          <mxGeometry x="685" y="430" width="120" height="80" as="geometry" />
        </mxCell>
        <mxCell id="2qbXoi_8YB-D-ueGqOY0-30" value="work" style="ellipse;whiteSpace=wrap;html=1;" vertex="1" parent="1">
          <mxGeometry x="860" y="430" width="120" height="80" as="geometry" />
        </mxCell>
        <mxCell id="2qbXoi_8YB-D-ueGqOY0-31" value="&lt;u&gt;c_id&lt;/u&gt;" style="ellipse;whiteSpace=wrap;html=1;" vertex="1" parent="1">
          <mxGeometry x="1130" y="330" width="120" height="80" as="geometry" />
        </mxCell>
        <mxCell id="2qbXoi_8YB-D-ueGqOY0-32" value="nickname" style="ellipse;whiteSpace=wrap;html=1;" vertex="1" parent="1">
          <mxGeometry x="1110" y="200" width="120" height="80" as="geometry" />
        </mxCell>
        <mxCell id="2qbXoi_8YB-D-ueGqOY0-33" value="phone" style="ellipse;whiteSpace=wrap;html=1;" vertex="1" parent="1">
          <mxGeometry x="1020" y="420" width="120" height="80" as="geometry" />
        </mxCell>
        <mxCell id="2qbXoi_8YB-D-ueGqOY0-36" style="edgeStyle=orthogonalEdgeStyle;rounded=0;orthogonalLoop=1;jettySize=auto;html=1;exitX=1;exitY=0;exitDx=0;exitDy=0;entryX=0.267;entryY=0.995;entryDx=0;entryDy=0;entryPerimeter=0;" edge="1" parent="1" source="2qbXoi_8YB-D-ueGqOY0-21" target="2qbXoi_8YB-D-ueGqOY0-28">
          <mxGeometry relative="1" as="geometry" />
        </mxCell>
        <mxCell id="2qbXoi_8YB-D-ueGqOY0-40" style="edgeStyle=orthogonalEdgeStyle;rounded=0;orthogonalLoop=1;jettySize=auto;html=1;exitX=0.5;exitY=1;exitDx=0;exitDy=0;entryX=0.283;entryY=0.06;entryDx=0;entryDy=0;entryPerimeter=0;" edge="1" parent="1" source="2qbXoi_8YB-D-ueGqOY0-21" target="2qbXoi_8YB-D-ueGqOY0-30">
          <mxGeometry relative="1" as="geometry" />
        </mxCell>
        <mxCell id="2qbXoi_8YB-D-ueGqOY0-44" style="edgeStyle=orthogonalEdgeStyle;rounded=0;orthogonalLoop=1;jettySize=auto;html=1;exitX=0.25;exitY=0;exitDx=0;exitDy=0;entryX=0.713;entryY=0.996;entryDx=0;entryDy=0;entryPerimeter=0;" edge="1" parent="1" source="2qbXoi_8YB-D-ueGqOY0-11" target="2qbXoi_8YB-D-ueGqOY0-1">
          <mxGeometry relative="1" as="geometry" />
        </mxCell>
        <mxCell id="2qbXoi_8YB-D-ueGqOY0-50" style="edgeStyle=orthogonalEdgeStyle;rounded=0;orthogonalLoop=1;jettySize=auto;html=1;exitX=0.5;exitY=1;exitDx=0;exitDy=0;entryX=0.626;entryY=-0.002;entryDx=0;entryDy=0;entryPerimeter=0;" edge="1" parent="1" source="2qbXoi_8YB-D-ueGqOY0-11" target="2qbXoi_8YB-D-ueGqOY0-5">
          <mxGeometry relative="1" as="geometry" />
        </mxCell>
      </root>
    </mxGraphModel>
  </diagram>
</mxfile>
